# xmcd
#
# Track frame offsets:
#	150
#	17385
#	34083
#	50147
#	65525
#	85218
#	104122
#	123101
#	143427
#	156003
#	173374
#	192892
#	209911
#	226490
#	241872
#	260026
#	276950
#	294130
#
# Disc length: 4139 seconds
#
# Revision: 1
# Processed by: cddbd v1.5.2PL0 Copyright (c) Steve Scherf et al.
# Submitted via: audiograbber 1.83.01
#
DISCID=fc102912
DTITLE=циыяцос циаммиас - се пяыто пяосыпо
DYEAR=2006
DGENRE=каийа
TTITLE0=ьавмы стг мувта
TTITLE1=циа лиа бяадиа
TTITLE2=ма коипом циати с' ацапгса (LATIN MIX)
TTITLE3=етоилафы таниди
TTITLE4=амте лгм аяцеис
TTITLE5=дем еисаи еды
TTITLE6=с' ацапы
TTITLE7=дыс' лоу писы тгм йаядиа лоу
TTITLE8=посо ха 'хека ма л' ацапоусес
TTITLE9=жеццаяосйомг
TTITLE10=паы апоье ма тяекахы
TTITLE11=ацапгсе ле
TTITLE12=ены апо ема лацафи (паеи йаияос)
TTITLE13=лехуса йи' апоье
TTITLE14=ти дем ейама циа сема
TTITLE15=циа та жикиа соу
TTITLE16=ти аваяистг поу еисаи
TTITLE17=ма коипом циати с' ацапгса (LOUNGE MIX)
EXTD=
EXTT0=
EXTT1=
EXTT2=
EXTT3=
EXTT4=
EXTT5=
EXTT6=
EXTT7=
EXTT8=
EXTT9=
EXTT10=
EXTT11=
EXTT12=
EXTT13=
EXTT14=
EXTT15=
EXTT16=
EXTT17=
PLAYORDER=
